<?xml version="1.0" encoding="UTF-8" standalone="no"?>
<!DOCTYPE svg PUBLIC "-//W3C//DTD SVG 1.1//EN" "http://www.w3.org/Graphics/SVG/1.1/DTD/svg11.dtd">
<!-- Generated by graphviz version 2.40.1 (20161225.0304)
 -->
<!-- Title: dependencies Pages: 1 -->
<svg width="657pt" height="283pt" viewBox="0.00 0.00 676.25 290.66" xmlns="http://www.w3.org/2000/svg" xmlns:xlink="http://www.w3.org/1999/xlink">
<g id="graph0" class="graph" transform="scale(.9722 .9722) rotate(0) translate(4 286.661)">
<title>dependencies</title>
<polygon fill="#ffffff" stroke="transparent" points="-4,4 -4,-286.661 672.2482,-286.661 672.2482,4 -4,4"/>
<!-- app.wordfreqCMD -->
<g id="node1" class="node">
<title>app.wordfreqCMD</title>
<ellipse fill="none" stroke="#000000" cx="264.5902" cy="-87.661" rx="84.5564" ry="18"/>
<text text-anchor="middle" x="264.5902" y="-83.461" font-family="Consolas" font-size="14.00" fill="#000000">app.wordfreqCMD</text>
</g>
<!-- app.difficulty -->
<g id="node2" class="node">
<title>app.difficulty</title>
<ellipse fill="none" stroke="#000000" cx="462.1028" cy="-156.661" rx="63.162" ry="18"/>
<text text-anchor="middle" x="462.1028" y="-152.461" font-family="Consolas" font-size="14.00" fill="#000000">app.difficulty</text>
</g>
<!-- app.wordfreqCMD&#45;&gt;app.difficulty -->
<g id="edge1" class="edge">
<title>app.wordfreqCMD-&gt;app.difficulty</title>
<path fill="none" stroke="#000000" d="M308.9159,-103.146C339.632,-113.8765 380.5643,-128.176 412.3897,-139.294"/>
<polygon fill="#000000" stroke="#000000" points="411.3579,-142.6409 421.9528,-142.6348 413.6666,-136.0326 411.3579,-142.6409"/>
</g>
<!-- app.main -->
<g id="node4" class="node">
<title>app.main</title>
<ellipse fill="none" stroke="#000000" cx="621.5428" cy="-133.661" rx="46.9117" ry="18"/>
<text text-anchor="middle" x="621.5428" y="-129.461" font-family="Consolas" font-size="14.00" fill="#000000">app.main</text>
</g>
<!-- app.wordfreqCMD&#45;&gt;app.main -->
<g id="edge5" class="edge">
<title>app.wordfreqCMD-&gt;app.main</title>
<path fill="none" stroke="#000000" d="M337.2552,-97.0252C405.2766,-105.7911 505.3909,-118.6927 566.8713,-126.6156"/>
<polygon fill="#000000" stroke="#000000" points="566.7745,-130.132 577.1398,-127.9389 567.6692,-123.1894 566.7745,-130.132"/>
</g>
<!-- app.WordFreq -->
<g id="node5" class="node">
<title>app.WordFreq</title>
<ellipse fill="none" stroke="#000000" cx="462.1028" cy="-64.661" rx="67.1593" ry="18"/>
<text text-anchor="middle" x="462.1028" y="-60.461" font-family="Consolas" font-size="14.00" fill="#000000">app.WordFreq</text>
</g>
<!-- app.wordfreqCMD&#45;&gt;app.WordFreq -->
<g id="edge8" class="edge">
<title>app.wordfreqCMD-&gt;app.WordFreq</title>
<path fill="none" stroke="#000000" d="M338.9798,-78.9985C355.733,-77.0476 373.4842,-74.9805 390.136,-73.0414"/>
<polygon fill="#000000" stroke="#000000" points="390.8153,-76.4861 400.3434,-71.8528 390.0056,-69.533 390.8153,-76.4861"/>
</g>
<!-- app.difficulty&#45;&gt;app.main -->
<g id="edge7" class="edge">
<title>app.difficulty-&gt;app.main</title>
<path fill="none" stroke="#000000" d="M518.7643,-148.4873C534.6238,-146.1995 551.8155,-143.7195 567.518,-141.4544"/>
<polygon fill="#000000" stroke="#000000" points="568.1949,-144.893 577.5927,-140.001 567.1954,-137.9647 568.1949,-144.893"/>
</g>
<!-- app.UseSqlite -->
<g id="node3" class="node">
<title>app.UseSqlite</title>
<ellipse fill="none" stroke="#000000" cx="462.1028" cy="-264.661" rx="64.8851" ry="18"/>
<text text-anchor="middle" x="462.1028" y="-260.461" font-family="Consolas" font-size="14.00" fill="#000000">app.UseSqlite</text>
</g>
<!-- app.UseSqlite&#45;&gt;app.main -->
<g id="edge2" class="edge">
<title>app.UseSqlite-&gt;app.main</title>
<path fill="none" stroke="#000000" d="M509.9974,-252.4674C520.0494,-248.6645 530.2085,-243.8036 538.8374,-237.661 567.8717,-216.9924 591.9833,-183.394 606.5396,-159.9991"/>
<polygon fill="#000000" stroke="#000000" points="609.6357,-161.6431 611.8204,-151.276 603.6475,-158.0179 609.6357,-161.6431"/>
</g>
<!-- app.WordFreq&#45;&gt;app.main -->
<g id="edge3" class="edge">
<title>app.WordFreq-&gt;app.main</title>
<path fill="none" stroke="#000000" d="M498.873,-79.7711C511.5641,-85.0456 525.8525,-91.0501 538.8374,-96.661 552.7806,-102.686 567.9722,-109.4301 581.4867,-115.4935"/>
<polygon fill="#000000" stroke="#000000" points="580.4335,-118.8575 590.9891,-119.7683 583.3054,-112.4737 580.4335,-118.8575"/>
</g>
<!-- app.pickle_idea2 -->
<g id="node6" class="node">
<title>app.pickle_idea2</title>
<ellipse fill="none" stroke="#000000" cx="462.1028" cy="-210.661" rx="76.97" ry="18"/>
<text text-anchor="middle" x="462.1028" y="-206.461" font-family="Consolas" font-size="14.00" fill="#000000">app.pickle_idea2</text>
</g>
<!-- app.pickle_idea2&#45;&gt;app.main -->
<g id="edge4" class="edge">
<title>app.pickle_idea2-&gt;app.main</title>
<path fill="none" stroke="#000000" d="M508.1684,-196.1826C518.4252,-192.4839 529.1313,-188.2429 538.8374,-183.661 556.3408,-175.3983 574.8636,-164.4293 589.9328,-154.8709"/>
<polygon fill="#000000" stroke="#000000" points="591.859,-157.7934 598.3724,-149.4371 588.0696,-151.9078 591.859,-157.7934"/>
</g>
<!-- app.pickle_idea -->
<g id="node7" class="node">
<title>app.pickle_idea</title>
<ellipse fill="none" stroke="#000000" cx="71.9062" cy="-41.661" rx="71.8124" ry="18"/>
<text text-anchor="middle" x="71.9062" y="-37.461" font-family="Consolas" font-size="14.00" fill="#000000">app.pickle_idea</text>
</g>
<!-- app.pickle_idea&#45;&gt;app.wordfreqCMD -->
<g id="edge9" class="edge">
<title>app.pickle_idea-&gt;app.wordfreqCMD</title>
<path fill="none" stroke="#000000" d="M124.0492,-54.1093C146.8733,-59.5581 173.9227,-66.0157 198.1661,-71.8034"/>
<polygon fill="#000000" stroke="#000000" points="197.4691,-75.2353 208.0086,-74.1531 199.0947,-68.4266 197.4691,-75.2353"/>
</g>
<!-- app.pickle_idea&#45;&gt;app.main -->
<g id="edge6" class="edge">
<title>app.pickle_idea-&gt;app.main</title>
<path fill="none" stroke="#000000" d="M120.7424,-28.2863C208.937,-6.8564 398.6358,26.6091 538.8374,-37.661 569.7323,-51.8236 593.4588,-83.855 607.4172,-107.0302"/>
<polygon fill="#000000" stroke="#000000" points="604.4138,-108.8282 612.4534,-115.7286 610.4717,-105.3207 604.4138,-108.8282"/>
</g>
</g>
</svg>