<?xml version="1.0" encoding="UTF-8" standalone="no"?>
<!DOCTYPE svg PUBLIC "-//W3C//DTD SVG 1.1//EN" "http://www.w3.org/Graphics/SVG/1.1/DTD/svg11.dtd">
<!-- Generated by graphviz version 2.40.1 (20161225.0304)
 -->
<!-- Title: dependencies Pages: 1 -->
<svg width="863pt" height="285pt" viewBox="0.00 0.00 1035.85 342.49" xmlns="http://www.w3.org/2000/svg" xmlns:xlink="http://www.w3.org/1999/xlink">
<g id="graph0" class="graph" transform="scale(.8333 .8333) rotate(0) translate(4 338.4903)">
<title>dependencies</title>
<polygon fill="#ffffff" stroke="transparent" points="-4,4 -4,-338.4903 1031.8477,-338.4903 1031.8477,4 -4,4"/>
<!-- app.Login -->
<g id="node1" class="node">
<title>app.Login</title>
<ellipse fill="none" stroke="#000000" cx="629.0424" cy="-262.4903" rx="50.4259" ry="18"/>
<text text-anchor="middle" x="629.0424" y="-258.2903" font-family="Consolas" font-size="14.00" fill="#000000">app.Login</text>
</g>
<!-- app.account_service -->
<g id="node2" class="node">
<title>app.account_service</title>
<ellipse fill="none" stroke="#000000" cx="808.8421" cy="-262.4903" rx="89.6897" ry="18"/>
<text text-anchor="middle" x="808.8421" y="-258.2903" font-family="Consolas" font-size="14.00" fill="#000000">app.account_service</text>
</g>
<!-- app.Login&#45;&gt;app.account_service -->
<g id="edge1" class="edge">
<title>app.Login-&gt;app.account_service</title>
<path fill="none" stroke="#000000" d="M679.6051,-262.4903C688.8753,-262.4903 698.8406,-262.4903 708.9771,-262.4903"/>
<polygon fill="#000000" stroke="#000000" points="709.1511,-265.9904 719.1511,-262.4903 709.1511,-258.9904 709.1511,-265.9904"/>
</g>
<!-- app.main -->
<g id="node11" class="node">
<title>app.main</title>
<ellipse fill="none" stroke="#000000" cx="981.1423" cy="-178.4903" rx="46.9117" ry="18"/>
<text text-anchor="middle" x="981.1423" y="-174.2903" font-family="Consolas" font-size="14.00" fill="#000000">app.main</text>
</g>
<!-- app.Login&#45;&gt;app.main -->
<g id="edge11" class="edge">
<title>app.Login-&gt;app.main</title>
<path fill="none" stroke="#000000" d="M667.0471,-250.411C683.0801,-245.4987 701.9944,-239.943 719.2474,-235.4903 791.6283,-216.8104 876.2986,-199.1288 929.3317,-188.5485"/>
<polygon fill="#000000" stroke="#000000" points="930.0528,-191.9738 939.1796,-186.593 928.6893,-185.1078 930.0528,-191.9738"/>
</g>
<!-- app.account_service&#45;&gt;app.main -->
<g id="edge12" class="edge">
<title>app.account_service-&gt;app.main</title>
<path fill="none" stroke="#000000" d="M857.5279,-247.2742C871.0233,-242.4755 885.5112,-236.7687 898.4369,-230.4903 916.2916,-221.8179 935.1062,-210.2073 950.2715,-200.1573"/>
<polygon fill="#000000" stroke="#000000" points="952.4027,-202.9419 958.7442,-194.4544 948.494,-197.1348 952.4027,-202.9419"/>
</g>
<!-- app.difficulty -->
<g id="node3" class="node">
<title>app.difficulty</title>
<ellipse fill="none" stroke="#000000" cx="462.1028" cy="-224.4903" rx="63.162" ry="18"/>
<text text-anchor="middle" x="462.1028" y="-220.2903" font-family="Consolas" font-size="14.00" fill="#000000">app.difficulty</text>
</g>
<!-- app.Article -->
<g id="node4" class="node">
<title>app.Article</title>
<ellipse fill="none" stroke="#000000" cx="629.0424" cy="-178.4903" rx="54.4107" ry="18"/>
<text text-anchor="middle" x="629.0424" y="-174.2903" font-family="Consolas" font-size="14.00" fill="#000000">app.Article</text>
</g>
<!-- app.difficulty&#45;&gt;app.Article -->
<g id="edge2" class="edge">
<title>app.difficulty-&gt;app.Article</title>
<path fill="none" stroke="#000000" d="M507.7197,-211.9206C529.3319,-205.9654 555.2395,-198.8266 577.5543,-192.6778"/>
<polygon fill="#000000" stroke="#000000" points="578.4883,-196.051 587.1992,-190.0202 576.6287,-189.3025 578.4883,-196.051"/>
</g>
<!-- app.user_service -->
<g id="node10" class="node">
<title>app.user_service</title>
<ellipse fill="none" stroke="#000000" cx="808.8421" cy="-132.4903" rx="75.8026" ry="18"/>
<text text-anchor="middle" x="808.8421" y="-128.2903" font-family="Consolas" font-size="14.00" fill="#000000">app.user_service</text>
</g>
<!-- app.Article&#45;&gt;app.user_service -->
<g id="edge19" class="edge">
<title>app.Article-&gt;app.user_service</title>
<path fill="none" stroke="#000000" d="M672.1089,-167.4722C694.5713,-161.7254 722.4456,-154.594 747.1555,-148.2723"/>
<polygon fill="#000000" stroke="#000000" points="748.3459,-151.5805 757.1663,-145.7111 746.6108,-144.799 748.3459,-151.5805"/>
</g>
<!-- app.Article&#45;&gt;app.main -->
<g id="edge14" class="edge">
<title>app.Article-&gt;app.main</title>
<path fill="none" stroke="#000000" d="M683.2864,-178.4903C748.4728,-178.4903 857.3602,-178.4903 923.8674,-178.4903"/>
<polygon fill="#000000" stroke="#000000" points="924.1644,-181.9904 934.1643,-178.4903 924.1643,-174.9904 924.1644,-181.9904"/>
</g>
<!-- app.pickle_idea -->
<g id="node5" class="node">
<title>app.pickle_idea</title>
<ellipse fill="none" stroke="#000000" cx="71.9062" cy="-155.4903" rx="71.8124" ry="18"/>
<text text-anchor="middle" x="71.9062" y="-151.2903" font-family="Consolas" font-size="14.00" fill="#000000">app.pickle_idea</text>
</g>
<!-- app.pickle_idea&#45;&gt;app.Article -->
<g id="edge3" class="edge">
<title>app.pickle_idea-&gt;app.Article</title>
<path fill="none" stroke="#000000" d="M100.8023,-171.9951C175.1974,-212.2516 378.7068,-308.1675 538.8374,-251.4903 565.6826,-241.9887 590.3836,-220.7239 607.1239,-203.583"/>
<polygon fill="#000000" stroke="#000000" points="609.9123,-205.728 614.2343,-196.0547 604.8233,-200.9215 609.9123,-205.728"/>
</g>
<!-- app.wordfreqCMD -->
<g id="node7" class="node">
<title>app.wordfreqCMD</title>
<ellipse fill="none" stroke="#000000" cx="264.5902" cy="-155.4903" rx="84.5564" ry="18"/>
<text text-anchor="middle" x="264.5902" y="-151.2903" font-family="Consolas" font-size="14.00" fill="#000000">app.wordfreqCMD</text>
</g>
<!-- app.pickle_idea&#45;&gt;app.wordfreqCMD -->
<g id="edge21" class="edge">
<title>app.pickle_idea-&gt;app.wordfreqCMD</title>
<path fill="none" stroke="#000000" d="M143.9286,-155.4903C152.303,-155.4903 160.9397,-155.4903 169.5623,-155.4903"/>
<polygon fill="#000000" stroke="#000000" points="169.6616,-158.9904 179.6616,-155.4903 169.6616,-151.9904 169.6616,-158.9904"/>
</g>
<!-- app.pickle_idea&#45;&gt;app.user_service -->
<g id="edge15" class="edge">
<title>app.pickle_idea-&gt;app.user_service</title>
<path fill="none" stroke="#000000" d="M101.3865,-138.8764C155.5603,-109.4078 275.4841,-49.061 385.3681,-27.4903 515.5435,-1.9364 572.0558,25.8634 683.2474,-46.4903 708.9944,-63.2443 694.9392,-86.7095 719.2474,-105.4903 725.4843,-110.3091 732.5752,-114.2712 739.9722,-117.5281"/>
<polygon fill="#000000" stroke="#000000" points="738.8782,-120.8593 749.4644,-121.288 741.4561,-114.3513 738.8782,-120.8593"/>
</g>
<!-- app.pickle_idea2 -->
<g id="node6" class="node">
<title>app.pickle_idea2</title>
<ellipse fill="none" stroke="#000000" cx="462.1028" cy="-78.4903" rx="76.97" ry="18"/>
<text text-anchor="middle" x="462.1028" y="-74.2903" font-family="Consolas" font-size="14.00" fill="#000000">app.pickle_idea2</text>
</g>
<!-- app.pickle_idea2&#45;&gt;app.Article -->
<g id="edge4" class="edge">
<title>app.pickle_idea2-&gt;app.Article</title>
<path fill="none" stroke="#000000" d="M510.2837,-92.6003C520.0061,-96.2273 529.9599,-100.5322 538.8374,-105.4903 562.9371,-118.9501 587.0795,-138.9135 604.3154,-154.5631"/>
<polygon fill="#000000" stroke="#000000" points="602.0045,-157.1933 611.7236,-161.4111 606.7561,-152.053 602.0045,-157.1933"/>
</g>
<!-- app.pickle_idea2&#45;&gt;app.user_service -->
<g id="edge16" class="edge">
<title>app.pickle_idea2-&gt;app.user_service</title>
<path fill="none" stroke="#000000" d="M526.1042,-88.4577C585.3271,-97.6809 673.3286,-111.3859 735.3921,-121.0515"/>
<polygon fill="#000000" stroke="#000000" points="735.0872,-124.5461 745.5067,-122.6267 736.1645,-117.6295 735.0872,-124.5461"/>
</g>
<!-- app.wordfreqCMD&#45;&gt;app.difficulty -->
<g id="edge8" class="edge">
<title>app.wordfreqCMD-&gt;app.difficulty</title>
<path fill="none" stroke="#000000" d="M308.9159,-170.9753C339.632,-181.7058 380.5643,-196.0053 412.3897,-207.1233"/>
<polygon fill="#000000" stroke="#000000" points="411.3579,-210.4703 421.9528,-210.4642 413.6666,-203.8619 411.3579,-210.4703"/>
</g>
<!-- app.wordfreqCMD&#45;&gt;app.Article -->
<g id="edge5" class="edge">
<title>app.wordfreqCMD-&gt;app.Article</title>
<path fill="none" stroke="#000000" d="M345.9268,-160.6234C412.1646,-164.8035 504.3721,-170.6226 565.331,-174.4696"/>
<polygon fill="#000000" stroke="#000000" points="565.3852,-177.9799 575.5858,-175.1168 565.8261,-170.9938 565.3852,-177.9799"/>
</g>
<!-- app.WordFreq -->
<g id="node8" class="node">
<title>app.WordFreq</title>
<ellipse fill="none" stroke="#000000" cx="462.1028" cy="-132.4903" rx="67.1593" ry="18"/>
<text text-anchor="middle" x="462.1028" y="-128.2903" font-family="Consolas" font-size="14.00" fill="#000000">app.WordFreq</text>
</g>
<!-- app.wordfreqCMD&#45;&gt;app.WordFreq -->
<g id="edge20" class="edge">
<title>app.wordfreqCMD-&gt;app.WordFreq</title>
<path fill="none" stroke="#000000" d="M338.9798,-146.8278C355.733,-144.8769 373.4842,-142.8098 390.136,-140.8707"/>
<polygon fill="#000000" stroke="#000000" points="390.8153,-144.3154 400.3434,-139.6821 390.0056,-137.3624 390.8153,-144.3154"/>
</g>
<!-- app.wordfreqCMD&#45;&gt;app.user_service -->
<g id="edge17" class="edge">
<title>app.wordfreqCMD-&gt;app.user_service</title>
<path fill="none" stroke="#000000" d="M278.1945,-137.6022C298.3856,-112.7059 338.9334,-68.7275 385.3681,-51.4903 526.2909,.8221 575.9668,-60.0315 719.2474,-105.4903 729.6803,-108.8004 740.8276,-112.2384 751.5904,-115.5076"/>
<polygon fill="#000000" stroke="#000000" points="750.7501,-118.9099 761.3352,-118.454 752.7761,-112.2095 750.7501,-118.9099"/>
</g>
<!-- app.WordFreq&#45;&gt;app.Article -->
<g id="edge6" class="edge">
<title>app.WordFreq-&gt;app.Article</title>
<path fill="none" stroke="#000000" d="M509.049,-145.4263C530.3748,-151.3026 555.6626,-158.2706 577.512,-164.2912"/>
<polygon fill="#000000" stroke="#000000" points="576.7119,-167.7011 587.2824,-166.9834 578.5715,-160.9526 576.7119,-167.7011"/>
</g>
<!-- app.WordFreq&#45;&gt;app.user_service -->
<g id="edge18" class="edge">
<title>app.WordFreq-&gt;app.user_service</title>
<path fill="none" stroke="#000000" d="M529.3687,-132.4903C584.5683,-132.4903 663.085,-132.4903 722.8473,-132.4903"/>
<polygon fill="#000000" stroke="#000000" points="723.0229,-135.9904 733.0229,-132.4903 723.0228,-128.9904 723.0229,-135.9904"/>
</g>
<!-- app.UseSqlite -->
<g id="node9" class="node">
<title>app.UseSqlite</title>
<ellipse fill="none" stroke="#000000" cx="462.1028" cy="-316.4903" rx="64.8851" ry="18"/>
<text text-anchor="middle" x="462.1028" y="-312.2903" font-family="Consolas" font-size="14.00" fill="#000000">app.UseSqlite</text>
</g>
<!-- app.UseSqlite&#45;&gt;app.Login -->
<g id="edge9" class="edge">
<title>app.UseSqlite-&gt;app.Login</title>
<path fill="none" stroke="#000000" d="M504.6606,-302.7241C528.179,-295.1167 557.4543,-285.647 581.6941,-277.8061"/>
<polygon fill="#000000" stroke="#000000" points="582.9608,-281.075 591.3982,-274.6671 580.8064,-274.4148 582.9608,-281.075"/>
</g>
<!-- app.UseSqlite&#45;&gt;app.Article -->
<g id="edge7" class="edge">
<title>app.UseSqlite-&gt;app.Article</title>
<path fill="none" stroke="#000000" d="M505.765,-303.0458C517.2157,-298.2893 529.0779,-292.1611 538.8374,-284.4903 560.0838,-267.7912 557.4914,-256.2121 574.8374,-235.4903 583.9673,-224.5837 594.6408,-213.1165 604.0906,-203.3503"/>
<polygon fill="#000000" stroke="#000000" points="606.8627,-205.5217 611.3539,-195.9259 601.8589,-200.6265 606.8627,-205.5217"/>
</g>
<!-- app.user_service&#45;&gt;app.main -->
<g id="edge10" class="edge">
<title>app.user_service-&gt;app.main</title>
<path fill="none" stroke="#000000" d="M859.606,-146.0431C882.6935,-152.2069 909.885,-159.4663 932.6876,-165.5541"/>
<polygon fill="#000000" stroke="#000000" points="931.9305,-168.9745 942.4949,-168.1724 933.7361,-162.2114 931.9305,-168.9745"/>
</g>
<!-- app.Yaml -->
<g id="node12" class="node">
<title>app.Yaml</title>
<ellipse fill="none" stroke="#000000" cx="808.8421" cy="-78.4903" rx="48.697" ry="18"/>
<text text-anchor="middle" x="808.8421" y="-74.2903" font-family="Consolas" font-size="14.00" fill="#000000">app.Yaml</text>
</g>
<!-- app.Yaml&#45;&gt;app.main -->
<g id="edge13" class="edge">
<title>app.Yaml-&gt;app.main</title>
<path fill="none" stroke="#000000" d="M851.8364,-87.4219C867.1303,-91.624 884.1003,-97.51 898.4369,-105.4903 921.3023,-118.218 943.3209,-138.156 958.8824,-153.9811"/>
<polygon fill="#000000" stroke="#000000" points="956.5273,-156.5817 965.9785,-161.3699 961.576,-151.733 956.5273,-156.5817"/>
</g>
</g>
</svg>