<?xml version="1.0" encoding="UTF-8" standalone="no"?>
<!DOCTYPE svg PUBLIC "-//W3C//DTD SVG 1.1//EN" "http://www.w3.org/Graphics/SVG/1.1/DTD/svg11.dtd">
<!-- Generated by graphviz version 2.40.1 (20161225.0304)
 -->
<!-- Title: dependencies Pages: 1 -->
<svg width="2282pt" height="443pt" viewBox="0.00 0.00 2347.54 456.14" xmlns="http://www.w3.org/2000/svg" xmlns:xlink="http://www.w3.org/1999/xlink">
<g id="graph0" class="graph" transform="scale(.9722 .9722) rotate(0) translate(4 452.1386)">
<title>dependencies</title>
<polygon fill="#ffffff" stroke="transparent" points="-4,4 -4,-452.1386 2343.5428,-452.1386 2343.5428,4 -4,4"/>
<!-- allocation.config -->
<g id="node1" class="node">
<title>allocation.config</title>
<ellipse fill="none" stroke="#000000" cx="900.2219" cy="-244.5152" rx="76.4037" ry="18"/>
<text text-anchor="middle" x="900.2219" y="-240.3152" font-family="Consolas" font-size="14.00" fill="#000000">allocation.config</text>
</g>
<!-- allocation.adapters.notifications -->
<g id="node2" class="node">
<title>allocation.adapters.notifications</title>
<ellipse fill="none" stroke="#000000" cx="1228.0578" cy="-266.5152" rx="134.2849" ry="18"/>
<text text-anchor="middle" x="1228.0578" y="-262.3152" font-family="Consolas" font-size="14.00" fill="#000000">allocation.adapters.notifications</text>
</g>
<!-- allocation.config&#45;&gt;allocation.adapters.notifications -->
<g id="edge1" class="edge">
<title>allocation.config-&gt;allocation.adapters.notifications</title>
<path fill="none" stroke="#000000" d="M973.7947,-249.4524C1010.322,-251.9037 1055.5537,-254.939 1097.6943,-257.7669"/>
<polygon fill="#000000" stroke="#000000" points="1097.5518,-261.2651 1107.7637,-258.4427 1098.0205,-254.2809 1097.5518,-261.2651"/>
</g>
<!-- allocation.adapters.redis_eventpublisher -->
<g id="node6" class="node">
<title>allocation.adapters.redis_eventpublisher</title>
<ellipse fill="none" stroke="#000000" cx="1228.0578" cy="-320.5152" rx="166.6329" ry="18"/>
<text text-anchor="middle" x="1228.0578" y="-316.3152" font-family="Consolas" font-size="14.00" fill="#000000">allocation.adapters.redis_eventpublisher</text>
</g>
<!-- allocation.config&#45;&gt;allocation.adapters.redis_eventpublisher -->
<g id="edge4" class="edge">
<title>allocation.config-&gt;allocation.adapters.redis_eventpublisher</title>
<path fill="none" stroke="#000000" d="M957.037,-256.5977C978.7351,-261.8419 1003.5276,-268.6061 1025.4914,-276.5152 1042.1392,-282.51 1044.5924,-288.2703 1061.4914,-293.5152 1076.0654,-298.0385 1091.6048,-301.8389 1107.1133,-305.0233"/>
<polygon fill="#000000" stroke="#000000" points="1106.8016,-308.5291 1117.2896,-307.0284 1108.1549,-301.6612 1106.8016,-308.5291"/>
</g>
<!-- allocation.entrypoints.redis_eventconsumer -->
<g id="node13" class="node">
<title>allocation.entrypoints.redis_eventconsumer</title>
<ellipse fill="none" stroke="#000000" cx="2160.094" cy="-76.5152" rx="179.3976" ry="18"/>
<text text-anchor="middle" x="2160.094" y="-72.3152" font-family="Consolas" font-size="14.00" fill="#000000">allocation.entrypoints.redis_eventconsumer</text>
</g>
<!-- allocation.config&#45;&gt;allocation.entrypoints.redis_eventconsumer -->
<g id="edge15" class="edge">
<title>allocation.config-&gt;allocation.entrypoints.redis_eventconsumer</title>
<path fill="none" stroke="#000000" d="M968.3782,-236.4046C987.5428,-232.3983 1007.9324,-226.4227 1025.4914,-217.5152 1044.5826,-207.8304 1042.0624,-194.5034 1061.4914,-185.5152 1382.7722,-36.8854 1812.2967,-45.9813 2026.6508,-62.58"/>
<polygon fill="#000000" stroke="#000000" points="2026.4491,-66.0749 2036.6942,-63.3755 2027.0018,-59.0967 2026.4491,-66.0749"/>
</g>
<!-- allocation.service_layer.unit_of_work -->
<g id="node14" class="node">
<title>allocation.service_layer.unit_of_work</title>
<ellipse fill="none" stroke="#000000" cx="1228.0578" cy="-212.5152" rx="157.9686" ry="18"/>
<text text-anchor="middle" x="1228.0578" y="-208.3152" font-family="Consolas" font-size="14.00" fill="#000000">allocation.service_layer.unit_of_work</text>
</g>
<!-- allocation.config&#45;&gt;allocation.service_layer.unit_of_work -->
<g id="edge25" class="edge">
<title>allocation.config-&gt;allocation.service_layer.unit_of_work</title>
<path fill="none" stroke="#000000" d="M970.9538,-237.6111C1007.9752,-233.9974 1054.493,-229.4568 1097.7483,-225.2347"/>
<polygon fill="#000000" stroke="#000000" points="1098.1783,-228.7095 1107.7909,-224.2544 1097.4982,-221.7426 1098.1783,-228.7095"/>
</g>
<!-- allocation.service_layer.handlers -->
<g id="node9" class="node">
<title>allocation.service_layer.handlers</title>
<ellipse fill="none" stroke="#000000" cx="1582.1655" cy="-366.5152" rx="138.2594" ry="18"/>
<text text-anchor="middle" x="1582.1655" y="-362.3152" font-family="Consolas" font-size="14.00" fill="#000000">allocation.service_layer.handlers</text>
</g>
<!-- allocation.adapters.notifications&#45;&gt;allocation.service_layer.handlers -->
<g id="edge17" class="edge">
<title>allocation.adapters.notifications-&gt;allocation.service_layer.handlers</title>
<path fill="none" stroke="#000000" d="M1326.1204,-278.8866C1348.8107,-282.7193 1372.7187,-287.548 1394.6243,-293.5152 1443.6724,-306.8761 1497.5476,-328.6304 1534.9192,-344.9213"/>
<polygon fill="#000000" stroke="#000000" points="1533.9646,-348.325 1544.5274,-349.1479 1536.7832,-341.9176 1533.9646,-348.325"/>
</g>
<!-- allocation.bootstrap -->
<g id="node11" class="node">
<title>allocation.bootstrap</title>
<ellipse fill="none" stroke="#000000" cx="1857.1759" cy="-231.5152" rx="87.4386" ry="18"/>
<text text-anchor="middle" x="1857.1759" y="-227.3152" font-family="Consolas" font-size="14.00" fill="#000000">allocation.bootstrap</text>
</g>
<!-- allocation.adapters.notifications&#45;&gt;allocation.bootstrap -->
<g id="edge30" class="edge">
<title>allocation.adapters.notifications-&gt;allocation.bootstrap</title>
<path fill="none" stroke="#000000" d="M1352.3513,-259.6003C1472.8483,-252.8967 1653.011,-242.8736 1762.366,-236.7898"/>
<polygon fill="#000000" stroke="#000000" points="1762.6065,-240.2819 1772.3967,-236.2318 1762.2176,-233.2927 1762.6065,-240.2819"/>
</g>
<!-- allocation.domain.model -->
<g id="node3" class="node">
<title>allocation.domain.model</title>
<ellipse fill="none" stroke="#000000" cx="392.5563" cy="-249.5152" rx="107.1052" ry="18"/>
<text text-anchor="middle" x="392.5563" y="-245.3152" font-family="Consolas" font-size="14.00" fill="#000000">allocation.domain.model</text>
</g>
<!-- allocation.adapters.orm -->
<g id="node4" class="node">
<title>allocation.adapters.orm</title>
<ellipse fill="none" stroke="#000000" cx="637.2807" cy="-190.5152" rx="101.8438" ry="18"/>
<text text-anchor="middle" x="637.2807" y="-186.3152" font-family="Consolas" font-size="14.00" fill="#000000">allocation.adapters.orm</text>
</g>
<!-- allocation.domain.model&#45;&gt;allocation.adapters.orm -->
<g id="edge2" class="edge">
<title>allocation.domain.model-&gt;allocation.adapters.orm</title>
<path fill="none" stroke="#000000" d="M453.9947,-234.7032C488.4201,-226.4037 531.483,-216.0217 567.2164,-207.4068"/>
<polygon fill="#000000" stroke="#000000" points="568.1863,-210.7734 577.0875,-205.027 566.5457,-203.9683 568.1863,-210.7734"/>
</g>
<!-- allocation.adapters.repository -->
<g id="node7" class="node">
<title>allocation.adapters.repository</title>
<ellipse fill="none" stroke="#000000" cx="900.2219" cy="-190.5152" rx="125.0394" ry="18"/>
<text text-anchor="middle" x="900.2219" y="-186.3152" font-family="Consolas" font-size="14.00" fill="#000000">allocation.adapters.repository</text>
</g>
<!-- allocation.domain.model&#45;&gt;allocation.adapters.repository -->
<g id="edge5" class="edge">
<title>allocation.domain.model-&gt;allocation.adapters.repository</title>
<path fill="none" stroke="#000000" d="M490.9412,-242.3696C560.3918,-236.8512 655.5522,-228.334 738.9525,-217.5152 762.8465,-214.4157 788.6235,-210.4035 812.4086,-206.4246"/>
<polygon fill="#000000" stroke="#000000" points="813.1922,-209.8419 822.469,-204.7242 812.0255,-202.9398 813.1922,-209.8419"/>
</g>
<!-- allocation.domain.model&#45;&gt;allocation.service_layer.handlers -->
<g id="edge19" class="edge">
<title>allocation.domain.model-&gt;allocation.service_layer.handlers</title>
<path fill="none" stroke="#000000" d="M465.0013,-262.7775C587.4134,-284.5904 843.2014,-327.6022 1061.4914,-347.5152 1186.7007,-358.9371 1329.4387,-363.5571 1433.7592,-365.3942"/>
<polygon fill="#000000" stroke="#000000" points="1433.9929,-368.8986 1444.0508,-365.5686 1434.1116,-361.8996 1433.9929,-368.8986"/>
</g>
<!-- allocation.adapters.orm&#45;&gt;allocation.adapters.repository -->
<g id="edge6" class="edge">
<title>allocation.adapters.orm-&gt;allocation.adapters.repository</title>
<path fill="none" stroke="#000000" d="M739.317,-190.5152C747.5273,-190.5152 755.8991,-190.5152 764.2951,-190.5152"/>
<polygon fill="#000000" stroke="#000000" points="764.5392,-194.0153 774.5392,-190.5152 764.5392,-187.0153 764.5392,-194.0153"/>
</g>
<!-- allocation.adapters.orm&#45;&gt;allocation.bootstrap -->
<g id="edge27" class="edge">
<title>allocation.adapters.orm-&gt;allocation.bootstrap</title>
<path fill="none" stroke="#000000" d="M687.5221,-174.836C846.4818,-127.9259 1350.5642,.058 1733.7066,-133.5152 1774.7466,-147.8228 1812.3843,-182.0937 1835.0468,-206.0528"/>
<polygon fill="#000000" stroke="#000000" points="1832.5069,-208.4614 1841.8639,-213.431 1837.6483,-203.711 1832.5069,-208.4614"/>
</g>
<!-- allocation.domain.events -->
<g id="node5" class="node">
<title>allocation.domain.events</title>
<ellipse fill="none" stroke="#000000" cx="124.7519" cy="-322.5152" rx="107.6656" ry="18"/>
<text text-anchor="middle" x="124.7519" y="-318.3152" font-family="Consolas" font-size="14.00" fill="#000000">allocation.domain.events</text>
</g>
<!-- allocation.domain.events&#45;&gt;allocation.domain.model -->
<g id="edge7" class="edge">
<title>allocation.domain.events-&gt;allocation.domain.model</title>
<path fill="none" stroke="#000000" d="M181.2191,-307.123C223.5916,-295.5728 281.7262,-279.7261 326.2987,-267.5762"/>
<polygon fill="#000000" stroke="#000000" points="327.4389,-270.8932 336.1664,-264.8864 325.5979,-264.1396 327.4389,-270.8932"/>
</g>
<!-- allocation.domain.events&#45;&gt;allocation.adapters.redis_eventpublisher -->
<g id="edge3" class="edge">
<title>allocation.domain.events-&gt;allocation.adapters.redis_eventpublisher</title>
<path fill="none" stroke="#000000" d="M232.5503,-322.3198C422.8892,-321.9748 820.1793,-321.2546 1051.1752,-320.8358"/>
<polygon fill="#000000" stroke="#000000" points="1051.3722,-324.3356 1061.3658,-320.8174 1051.3595,-317.3356 1051.3722,-324.3356"/>
</g>
<!-- allocation.domain.events&#45;&gt;allocation.service_layer.handlers -->
<g id="edge18" class="edge">
<title>allocation.domain.events-&gt;allocation.service_layer.handlers</title>
<path fill="none" stroke="#000000" d="M146.5423,-340.1641C176.0287,-362.905 231.2133,-401.5285 285.5037,-418.5152 435.0627,-465.3101 480.5719,-442.5152 637.2807,-442.5152 637.2807,-442.5152 637.2807,-442.5152 900.2219,-442.5152 1120.2151,-442.5152 1177.4233,-453.4537 1394.6243,-418.5152 1438.3803,-411.4767 1486.5322,-397.9994 1523.0881,-386.5294"/>
<polygon fill="#000000" stroke="#000000" points="1524.6078,-389.719 1533.0779,-383.3544 1522.4875,-383.0478 1524.6078,-389.719"/>
</g>
<!-- allocation.service_layer.messagebus -->
<g id="node15" class="node">
<title>allocation.service_layer.messagebus</title>
<ellipse fill="none" stroke="#000000" cx="1582.1655" cy="-160.5152" rx="151.5824" ry="18"/>
<text text-anchor="middle" x="1582.1655" y="-156.3152" font-family="Consolas" font-size="14.00" fill="#000000">allocation.service_layer.messagebus</text>
</g>
<!-- allocation.domain.events&#45;&gt;allocation.service_layer.messagebus -->
<g id="edge21" class="edge">
<title>allocation.domain.events-&gt;allocation.service_layer.messagebus</title>
<path fill="none" stroke="#000000" d="M187.7201,-307.8054C208.8417,-300.7578 231.5632,-290.6712 249.5037,-276.5152 272.1479,-258.6478 261.8158,-238.9737 285.5037,-222.5152 379.2957,-157.3482 422.1844,-176.8774 535.6089,-163.5152 857.9044,-125.5467 1239.9124,-139.0987 1441.4247,-150.7623"/>
<polygon fill="#000000" stroke="#000000" points="1441.2873,-154.2601 1451.4749,-151.3511 1441.6968,-147.2721 1441.2873,-154.2601"/>
</g>
<!-- allocation.adapters.redis_eventpublisher&#45;&gt;allocation.bootstrap -->
<g id="edge26" class="edge">
<title>allocation.adapters.redis_eventpublisher-&gt;allocation.bootstrap</title>
<path fill="none" stroke="#000000" d="M1357.762,-309.1808C1460.2577,-299.2487 1606.7063,-282.8915 1733.7066,-260.5152 1753.096,-257.099 1774.0033,-252.5314 1793.0028,-248.0334"/>
<polygon fill="#000000" stroke="#000000" points="1793.8397,-251.432 1802.7462,-245.6941 1792.2054,-244.6255 1793.8397,-251.432"/>
</g>
<!-- allocation.adapters.repository&#45;&gt;allocation.service_layer.unit_of_work -->
<g id="edge24" class="edge">
<title>allocation.adapters.repository-&gt;allocation.service_layer.unit_of_work</title>
<path fill="none" stroke="#000000" d="M1013.963,-198.148C1035.7915,-199.6128 1058.9338,-201.1658 1081.6241,-202.6885"/>
<polygon fill="#000000" stroke="#000000" points="1081.45,-206.1846 1091.6619,-203.3621 1081.9188,-199.2003 1081.45,-206.1846"/>
</g>
<!-- allocation.domain.commands -->
<g id="node8" class="node">
<title>allocation.domain.commands</title>
<ellipse fill="none" stroke="#000000" cx="124.7519" cy="-249.5152" rx="124.5042" ry="18"/>
<text text-anchor="middle" x="124.7519" y="-245.3152" font-family="Consolas" font-size="14.00" fill="#000000">allocation.domain.commands</text>
</g>
<!-- allocation.domain.commands&#45;&gt;allocation.domain.model -->
<g id="edge8" class="edge">
<title>allocation.domain.commands-&gt;allocation.domain.model</title>
<path fill="none" stroke="#000000" d="M249.6375,-249.5152C258.0717,-249.5152 266.5538,-249.5152 274.9492,-249.5152"/>
<polygon fill="#000000" stroke="#000000" points="275.1377,-253.0153 285.1377,-249.5152 275.1377,-246.0153 275.1377,-253.0153"/>
</g>
<!-- allocation.domain.commands&#45;&gt;allocation.service_layer.handlers -->
<g id="edge16" class="edge">
<title>allocation.domain.commands-&gt;allocation.service_layer.handlers</title>
<path fill="none" stroke="#000000" d="M195.4487,-264.4845C214.8082,-271.3452 234.5531,-281.2564 249.5037,-295.5152 279.1925,-323.8302 252.0929,-356.706 285.5037,-380.5152 349.3135,-425.9874 558.9263,-404.5152 637.2807,-404.5152 637.2807,-404.5152 637.2807,-404.5152 900.2219,-404.5152 1095.4348,-404.5152 1321.5949,-388.7999 1458.1664,-377.5819"/>
<polygon fill="#000000" stroke="#000000" points="1458.5716,-381.0605 1468.2493,-376.7485 1457.9949,-374.0842 1458.5716,-381.0605"/>
</g>
<!-- allocation.entrypoints.flask_app -->
<g id="node10" class="node">
<title>allocation.entrypoints.flask_app</title>
<ellipse fill="none" stroke="#000000" cx="2160.094" cy="-330.5152" rx="134.8741" ry="18"/>
<text text-anchor="middle" x="2160.094" y="-326.3152" font-family="Consolas" font-size="14.00" fill="#000000">allocation.entrypoints.flask_app</text>
</g>
<!-- allocation.domain.commands&#45;&gt;allocation.entrypoints.flask_app -->
<g id="edge11" class="edge">
<title>allocation.domain.commands-&gt;allocation.entrypoints.flask_app</title>
<path fill="none" stroke="#000000" d="M196.4491,-264.2596C422.2539,-308.9077 1138.9885,-436.9823 1733.7066,-393.5152 1851.9771,-384.871 1987.2166,-362.7865 2073.0929,-347.2146"/>
<polygon fill="#000000" stroke="#000000" points="2073.8477,-350.6347 2083.0572,-345.3968 2072.5914,-343.7484 2073.8477,-350.6347"/>
</g>
<!-- allocation.domain.commands&#45;&gt;allocation.entrypoints.redis_eventconsumer -->
<g id="edge14" class="edge">
<title>allocation.domain.commands-&gt;allocation.entrypoints.redis_eventconsumer</title>
<path fill="none" stroke="#000000" d="M132.5367,-231.286C151.5585,-189.3032 204.822,-86.0658 285.5037,-42.5152 423.5205,31.9838 480.4409,-14.5152 637.2807,-14.5152 637.2807,-14.5152 637.2807,-14.5152 1582.1655,-14.5152 1750.6466,-14.5152 1945.1878,-40.8871 2060.1327,-59.2319"/>
<polygon fill="#000000" stroke="#000000" points="2059.8909,-62.7379 2070.3198,-60.87 2061.0023,-55.8267 2059.8909,-62.7379"/>
</g>
<!-- allocation.domain.commands&#45;&gt;allocation.service_layer.messagebus -->
<g id="edge22" class="edge">
<title>allocation.domain.commands-&gt;allocation.service_layer.messagebus</title>
<path fill="none" stroke="#000000" d="M136.8103,-231.5389C160.6631,-197.6481 217.4945,-124.8161 285.5037,-92.5152 427.6398,-25.0078 479.9279,-52.5152 637.2807,-52.5152 637.2807,-52.5152 637.2807,-52.5152 900.2219,-52.5152 1121.6774,-52.5152 1176.8523,-74.2927 1394.6243,-114.5152 1433.9487,-121.7784 1477.3444,-132.2603 1512.4793,-141.3844"/>
<polygon fill="#000000" stroke="#000000" points="1511.5994,-144.7719 1522.1598,-143.918 1513.3719,-138 1511.5994,-144.7719"/>
</g>
<!-- allocation.service_layer.handlers&#45;&gt;allocation.entrypoints.flask_app -->
<g id="edge9" class="edge">
<title>allocation.service_layer.handlers-&gt;allocation.entrypoints.flask_app</title>
<path fill="none" stroke="#000000" d="M1706.8558,-358.7481C1801.3988,-352.8588 1931.073,-344.7813 2027.502,-338.7746"/>
<polygon fill="#000000" stroke="#000000" points="2027.8487,-342.2598 2037.6117,-338.1448 2027.4134,-335.2734 2027.8487,-342.2598"/>
</g>
<!-- allocation.service_layer.handlers&#45;&gt;allocation.bootstrap -->
<g id="edge29" class="edge">
<title>allocation.service_layer.handlers-&gt;allocation.bootstrap</title>
<path fill="none" stroke="#000000" d="M1691.3883,-355.3359C1706.528,-350.4983 1721.1653,-343.7858 1733.7066,-334.5152 1760.2626,-314.8849 1745.2623,-291.7198 1769.7066,-269.5152 1777.9637,-262.0147 1787.9332,-255.8301 1798.1417,-250.7883"/>
<polygon fill="#000000" stroke="#000000" points="1799.9131,-253.8265 1807.5418,-246.4744 1796.9933,-247.4644 1799.9131,-253.8265"/>
</g>
<!-- allocation.bootstrap&#45;&gt;allocation.entrypoints.flask_app -->
<g id="edge10" class="edge">
<title>allocation.bootstrap-&gt;allocation.entrypoints.flask_app</title>
<path fill="none" stroke="#000000" d="M1903.843,-246.767C1956.3204,-263.9177 2041.7178,-291.8274 2099.357,-310.6651"/>
<polygon fill="#000000" stroke="#000000" points="2098.4775,-314.0597 2109.07,-313.8395 2100.6521,-307.4061 2098.4775,-314.0597"/>
</g>
<!-- allocation.bootstrap&#45;&gt;allocation.entrypoints.redis_eventconsumer -->
<g id="edge13" class="edge">
<title>allocation.bootstrap-&gt;allocation.entrypoints.redis_eventconsumer</title>
<path fill="none" stroke="#000000" d="M1889.8813,-214.7802C1944.5947,-186.7839 2054.7154,-130.4363 2116.1414,-99.0053"/>
<polygon fill="#000000" stroke="#000000" points="2117.8943,-102.04 2125.2023,-94.369 2114.7056,-95.8084 2117.8943,-102.04"/>
</g>
<!-- allocation.views -->
<g id="node12" class="node">
<title>allocation.views</title>
<ellipse fill="none" stroke="#000000" cx="1857.1759" cy="-296.5152" rx="74.1136" ry="18"/>
<text text-anchor="middle" x="1857.1759" y="-292.3152" font-family="Consolas" font-size="14.00" fill="#000000">allocation.views</text>
</g>
<!-- allocation.views&#45;&gt;allocation.entrypoints.flask_app -->
<g id="edge12" class="edge">
<title>allocation.views-&gt;allocation.entrypoints.flask_app</title>
<path fill="none" stroke="#000000" d="M1924.7796,-304.1032C1960.6215,-308.1261 2005.6118,-313.1759 2046.6281,-317.7796"/>
<polygon fill="#000000" stroke="#000000" points="2046.3573,-321.2711 2056.6854,-318.9085 2047.1382,-314.3148 2046.3573,-321.2711"/>
</g>
<!-- allocation.service_layer.unit_of_work&#45;&gt;allocation.service_layer.handlers -->
<g id="edge20" class="edge">
<title>allocation.service_layer.unit_of_work-&gt;allocation.service_layer.handlers</title>
<path fill="none" stroke="#000000" d="M1359.0062,-222.631C1371.6218,-226.821 1383.7491,-232.3264 1394.6243,-239.5152 1419.6198,-256.038 1408.1,-276.7558 1430.6243,-296.5152 1455.6778,-318.4934 1488.803,-334.8514 1517.6921,-346.2034"/>
<polygon fill="#000000" stroke="#000000" points="1516.7181,-349.5776 1527.3092,-349.8622 1519.2073,-343.035 1516.7181,-349.5776"/>
</g>
<!-- allocation.service_layer.unit_of_work&#45;&gt;allocation.bootstrap -->
<g id="edge31" class="edge">
<title>allocation.service_layer.unit_of_work-&gt;allocation.bootstrap</title>
<path fill="none" stroke="#000000" d="M1381.153,-217.1388C1499.3026,-220.7071 1659.148,-225.5346 1760.2206,-228.5871"/>
<polygon fill="#000000" stroke="#000000" points="1760.321,-232.0916 1770.4221,-228.8952 1760.5323,-225.0948 1760.321,-232.0916"/>
</g>
<!-- allocation.service_layer.unit_of_work&#45;&gt;allocation.views -->
<g id="edge32" class="edge">
<title>allocation.service_layer.unit_of_work-&gt;allocation.views</title>
<path fill="none" stroke="#000000" d="M1330.8878,-226.2451C1457.4088,-243.1382 1669.2271,-271.4202 1781.6857,-286.4357"/>
<polygon fill="#000000" stroke="#000000" points="1781.5466,-289.9481 1791.9219,-287.8025 1782.4731,-283.0097 1781.5466,-289.9481"/>
</g>
<!-- allocation.service_layer.unit_of_work&#45;&gt;allocation.service_layer.messagebus -->
<g id="edge23" class="edge">
<title>allocation.service_layer.unit_of_work-&gt;allocation.service_layer.messagebus</title>
<path fill="none" stroke="#000000" d="M1325.2877,-198.2372C1372.2149,-191.346 1428.6041,-183.0654 1476.5803,-176.0202"/>
<polygon fill="#000000" stroke="#000000" points="1477.2984,-179.4524 1486.6837,-174.5365 1476.2813,-172.5266 1477.2984,-179.4524"/>
</g>
<!-- allocation.service_layer.messagebus&#45;&gt;allocation.bootstrap -->
<g id="edge28" class="edge">
<title>allocation.service_layer.messagebus-&gt;allocation.bootstrap</title>
<path fill="none" stroke="#000000" d="M1661.9452,-175.8348C1685.1931,-180.7103 1710.5612,-186.4316 1733.7066,-192.5152 1756.4252,-198.4866 1781.1691,-206.0812 1802.4994,-212.9789"/>
<polygon fill="#000000" stroke="#000000" points="1801.4477,-216.3172 1812.0401,-216.0907 1803.6184,-209.6623 1801.4477,-216.3172"/>
</g>
</g>
</svg>